# xmcd CD database file
#
# Track frame offsets:
#	150
#	12309
#	29316
#	56302
#	65954
#	81069
#	92515
#	104099
#	127338
#	141234
#	156717
#
# Disc length: 2345 seconds
#
# Revision: 0
# Processed by: cddbd v1.5.1PL0 Copyright (c) Steve Scherf et al.
# Submitted via: CDex 1.51
#
DISCID=a009270b
DTITLE=RODOLFO ALCHOURRON - Parábola
DYEAR=1976
DGENRE=Jazz
TTITLE0=Parábola
TTITLE1=Las mañas
TTITLE2=Mañana de bicicletas
TTITLE3=Vivir en el mismo barrio
TTITLE4=Stadium
TTITLE5=Día de la música
TTITLE6=Casi real
TTITLE7=Arpegio
TTITLE8=Canción para Virgilio
TTITLE9=Es un vals
TTITLE10=Medley
EXTD=YEAR: 1976
EXTT0=
EXTT1=
EXTT2=
EXTT3=
EXTT4=
EXTT5=
EXTT6=
EXTT7=
EXTT8=
EXTT9=
EXTT10=
PLAYORDER=
